<svg width="25" height="29" viewBox="0 0 25 29" fill="none" xmlns="http://www.w3.org/2000/svg">
<g clip-path="url(#clip0_6118_2019)">
<path d="M17.92 13.6399L11.68 7.3999H3.36C2.80835 7.3999 2.27929 7.61904 1.88922 8.00912C1.49914 8.3992 1.28 8.92825 1.28 9.4799V26.1199C1.28 26.6716 1.49914 27.2006 1.88922 27.5907C2.27929 27.9808 2.80835 28.1999 3.36 28.1999H15.84C16.3917 28.1999 16.9207 27.9808 17.3108 27.5907C17.7009 27.2006 17.92 26.6716 17.92 26.1199V13.6399ZM11.68 7.3999V13.6399H17.92" stroke="#69A0C9" stroke-width="2" stroke-linecap="round" stroke-linejoin="round"/>
</g>
<path d="M16.899 0.00488281C17.1278 0.0276483 17.3433 0.128918 17.5074 0.292969L23.7466 6.5332C23.9341 6.72073 24.0396 6.97507 24.0396 7.24023V19.7197C24.0395 20.5363 23.7155 21.32 23.1382 21.8975C22.5606 22.475 21.7763 22.7998 20.9595 22.7998H20.48V20.7998H20.9595C21.2459 20.7998 21.5207 20.6858 21.7232 20.4834C21.9257 20.2809 22.0395 20.0061 22.0396 19.7197V8.24023H16.8004C16.2483 8.24021 15.8006 7.79227 15.8004 7.24023V2H8.48004C8.19362 2.00001 7.9189 2.11388 7.71637 2.31641C7.51393 2.51893 7.39996 2.79372 7.39996 3.08008V4.51953H5.39996V3.08008C5.39996 2.26328 5.72479 1.47994 6.30231 0.902344C6.87991 0.32474 7.66319 9.73144e-06 8.48004 0H16.8004L16.899 0.00488281ZM17.8004 6.24023H20.6255L17.8004 3.41406V6.24023Z" fill="#AECCE2"/>
<defs>
<clipPath id="clip0_6118_2019">
<rect width="19.2" height="23.04" fill="white" transform="translate(0 5.7998)"/>
</clipPath>
</defs>
</svg>
