<svg width="26" height="22" viewBox="0 0 26 22" fill="none" xmlns="http://www.w3.org/2000/svg">
<path d="M22.2864 4.5332C23.1125 4.53331 23.9167 4.84349 24.5188 5.41309C25.1232 5.98507 25.4758 6.77515 25.4758 7.6123C25.4758 7.71393 25.462 7.81517 25.4348 7.91309L22.3372 19.0566C22.287 19.2369 22.1927 19.4016 22.0627 19.5361L21.5471 20.0713C21.5355 20.0833 21.5231 20.0949 21.511 20.1064C20.9051 20.6798 20.1876 20.9482 19.3665 20.9482H6.89087C6.21909 20.9482 5.56384 20.7402 5.01782 20.3574H18.7766C19.2968 20.3574 19.7955 20.1322 20.1633 19.7314C20.531 19.3307 20.7375 18.7874 20.7375 18.2207V6.46777C20.7375 5.90101 20.5311 5.35682 20.1633 4.95605C20.0003 4.77852 19.8106 4.63748 19.6057 4.5332H22.2864ZM10.9309 1.60254C11.2967 1.60254 11.6401 1.78106 11.8508 2.08008L13.4358 4.33008H9.95044L8.28149 1.60254H10.9309Z" fill="#69A0C9"/>
<path d="M21.7702 18.2209C21.7702 18.2209 21.5526 19.3312 21.1655 19.732C20.7783 20.1327 20.2532 20.3579 19.7056 20.3579H3.18952C2.64197 20.3579 2.11685 20.1327 1.72968 19.732C1.34251 19.3312 1.125 18.7877 1.125 18.2209V3.26199C1.125 2.69522 1.34251 2.15167 1.72968 1.75091C2.11685 1.35015 2.64197 1.125 3.18952 1.125H8.35081L10.4153 4.33048H19.7056C20.2532 4.33048 20.7783 4.55563 21.1655 4.95639C21.5526 5.35715 21.7702 5.9007 21.7702 6.46747V18.2209Z" stroke="#69A0C9" stroke-width="2.25" stroke-linecap="round" stroke-linejoin="round"/>
</svg>
