<svg width="27" height="26" viewBox="0 0 27 26" fill="none" xmlns="http://www.w3.org/2000/svg">
<path d="M13.1245 25.9091C9.75741 25.9091 6.82289 24.8227 4.32092 22.6499C1.81895 20.4771 0.378639 17.7533 0 14.4786H2.3803C2.77293 17.1107 3.98154 19.2928 6.00614 21.0249C8.03047 22.7569 10.4033 23.623 13.1245 23.623C16.1567 23.623 18.7289 22.5879 20.8411 20.5177C22.9533 18.4475 24.0094 15.9265 24.0094 12.9545C24.0094 9.98262 22.9533 7.46157 20.8411 5.39138C18.7289 3.32119 16.1567 2.2861 13.1245 2.2861C11.4259 2.2861 9.83413 2.65594 8.34912 3.39562C6.86384 4.13504 5.58487 5.15248 4.51218 6.44793H8.57925V8.73403H0.684583V0.996358H3.01706V4.60725C4.27894 3.1477 5.79012 2.01494 7.55063 1.20896C9.31087 0.402987 11.1688 0 13.1245 0C14.9586 0 16.6771 0.339994 18.28 1.01998C19.8827 1.69997 21.2801 2.62418 22.4723 3.79263C23.6644 4.96108 24.6074 6.33084 25.3012 7.90189C25.995 9.4727 26.3419 11.1569 26.3419 12.9545C26.3419 14.7522 25.995 16.4364 25.3012 18.0072C24.6074 19.5783 23.6644 20.948 22.4723 22.1165C21.2801 23.2849 19.8827 24.2091 18.28 24.8891C16.6771 25.5691 14.9586 25.9091 13.1245 25.9091ZM17.7926 19.092L12.0033 13.4175V5.33423H14.3354V12.4916L19.4311 17.4856L17.7926 19.092Z" fill="#69A0C9"/>
</svg>
