<svg width="24" height="24" viewBox="0 0 24 24" fill="none" xmlns="http://www.w3.org/2000/svg">
<g clip-path="url(#clip0_6117_1974)">
<path d="M9.75 18.2437L7.75875 20.1787C7.2366 20.7009 6.52842 20.9942 5.79 20.9942C5.05157 20.9942 4.34339 20.7009 3.82125 20.1787C3.2991 19.6566 3.00577 18.9484 3.00577 18.21C3.00577 17.4716 3.2991 16.7634 3.82125 16.2412L8.92875 11.1225C9.43006 10.6195 10.1055 10.3285 10.8154 10.3097C11.5253 10.2909 12.2152 10.5456 12.7425 11.0212L12.8775 11.1337C13.0908 11.3426 13.3784 11.4581 13.6769 11.455C13.9755 11.4518 14.2605 11.3302 14.4694 11.1169C14.6782 10.9035 14.7938 10.616 14.7906 10.3174C14.7875 10.0189 14.6658 9.73384 14.4525 9.52498C14.389 9.44289 14.3214 9.36404 14.25 9.28873C13.2896 8.45321 12.0476 8.01394 10.7755 8.05989C9.5034 8.10585 8.29631 8.63359 7.39875 9.53623L2.22375 14.655C1.3444 15.6121 0.868822 16.872 0.896333 18.1715C0.923844 19.4709 1.45232 20.7095 2.37139 21.6286C3.29046 22.5477 4.52906 23.0761 5.82853 23.1037C7.128 23.1312 8.38785 22.6556 9.345 21.7762L11.2912 19.875C11.4834 19.6653 11.5891 19.3907 11.5869 19.1063C11.5848 18.8219 11.475 18.5489 11.2797 18.3422C11.0844 18.1355 10.818 18.0104 10.5342 17.9921C10.2504 17.9739 9.9702 18.0638 9.75 18.2437V18.2437ZM21.7762 2.22373C20.8299 1.28324 19.5498 0.755371 18.2156 0.755371C16.8814 0.755371 15.6014 1.28324 14.655 2.22373L12.7087 4.12498C12.5166 4.33463 12.4109 4.60927 12.4131 4.89366C12.4152 5.17804 12.525 5.45106 12.7203 5.65778C12.9156 5.8645 13.182 5.98957 13.4658 6.00784C13.7496 6.02611 14.0298 5.93621 14.25 5.75623L16.1962 3.82123C16.7184 3.29909 17.4266 3.00575 18.165 3.00575C18.9034 3.00575 19.6116 3.29909 20.1337 3.82123C20.6559 4.34338 20.9492 5.05156 20.9492 5.78998C20.9492 6.52841 20.6559 7.23659 20.1337 7.75873L15.0262 12.8775C14.5249 13.3804 13.8495 13.6714 13.1396 13.6903C12.4297 13.7091 11.7398 13.4544 11.2125 12.9787L11.0775 12.8662C10.8642 12.6574 10.5766 12.5418 10.2781 12.545C9.97953 12.5481 9.69448 12.6698 9.48562 12.8831C9.27677 13.0964 9.16121 13.384 9.16437 13.6825C9.16754 13.9811 9.28916 14.2661 9.5025 14.475C9.58422 14.5586 9.6706 14.6374 9.76125 14.7112C10.7228 15.5442 11.9643 15.9819 13.2356 15.9359C14.5069 15.89 15.7136 15.3639 16.6125 14.4637L21.7312 9.34498C22.6777 8.40457 23.2137 7.12787 23.2222 5.79364C23.2306 4.45941 22.7108 3.17604 21.7762 2.22373V2.22373Z" fill="#69A0C9"/>
</g>
<defs>
<clipPath id="clip0_6117_1974">
<rect width="24" height="24" fill="white"/>
</clipPath>
</defs>
</svg>
