<svg width="19" height="23" viewBox="0 0 19 23" fill="none" xmlns="http://www.w3.org/2000/svg">
<path d="M11.499 0.00488281C11.7278 0.027691 11.9434 0.129008 12.1074 0.292969L18.3467 6.5332C18.5341 6.72065 18.6395 6.97516 18.6396 7.24023V10.9004H16.6396V8.24023H11.4004C10.8482 8.24023 10.4005 7.79241 10.4004 7.24023V2H3.08008C2.7938 2 2.51891 2.11407 2.31641 2.31641C2.11396 2.51885 2.0001 2.79378 2 3.08008V19.7197C2 20.0061 2.11397 20.2809 2.31641 20.4834C2.51895 20.6859 2.79364 20.7998 3.08008 20.7998H6.71973V22.7998H3.08008C2.26321 22.7998 1.47996 22.4751 0.902344 21.8975C0.32483 21.3199 0 20.5365 0 19.7197V3.08008C0.000103111 2.26335 0.324823 1.47986 0.902344 0.902344C1.47992 0.324939 2.26337 0 3.08008 0H11.4004L11.499 0.00488281ZM12.4004 6.24023H15.2256L12.4004 3.41406V6.24023Z" fill="#69A0C9"/>
<path d="M17.3592 13H10.0449C9.46782 13 9 13.4678 9 14.0449V21.3592C9 21.9363 9.46782 22.4041 10.0449 22.4041H17.3592C17.9363 22.4041 18.4041 21.9363 18.4041 21.3592V14.0449C18.4041 13.4678 17.9363 13 17.3592 13Z" stroke="#69A0C9" stroke-width="1.2" stroke-linecap="round" stroke-linejoin="round"/>
<path d="M13.8616 19.7183L13.7786 20.189H13.6956L13.6126 19.7183L13.5716 19.4888C13.626 19.4935 13.6816 19.4966 13.7376 19.4966C13.7931 19.4966 13.8477 19.4934 13.9017 19.4888L13.8616 19.7183ZM12.1107 18.4634C12.1611 18.5701 12.2233 18.6714 12.2962 18.7681L12.0726 18.8452L11.6058 19.0044L11.5609 18.9282L11.9153 18.6294L12.1107 18.4634ZM15.5589 18.6294L15.9124 18.9292L15.8685 19.0044L15.4026 18.8452L15.1771 18.7681C15.2502 18.6711 15.312 18.5695 15.3626 18.4624L15.5589 18.6294ZM13.7376 16.9087C13.9595 16.9088 14.1369 16.982 14.2972 17.1421C14.4576 17.3025 14.5315 17.4805 14.5316 17.7026C14.5316 17.9249 14.4576 18.1028 14.2972 18.2632C14.1369 18.4233 13.9595 18.4965 13.7376 18.4966C13.5155 18.4966 13.3374 18.4235 13.1771 18.2632C13.0167 18.1028 12.9427 17.9249 12.9427 17.7026C12.9427 17.4805 13.0167 17.3025 13.1771 17.1421C13.3374 16.9818 13.5155 16.9087 13.7376 16.9087ZM12.0726 16.561L12.2962 16.6372C12.2233 16.7339 12.1612 16.8352 12.1107 16.9419L11.9153 16.7759L11.5609 16.4761L11.6058 16.4009L12.0726 16.561ZM15.9124 16.4751L15.5589 16.7759L15.3626 16.9419C15.3121 16.8353 15.2509 16.7337 15.178 16.6372L15.4026 16.561L15.8685 16.4009L15.9124 16.4751ZM13.7786 15.2163L13.8616 15.687L13.9017 15.9165C13.8477 15.9119 13.7931 15.9087 13.7376 15.9087C13.6816 15.9087 13.626 15.9118 13.5716 15.9165L13.6126 15.687L13.6956 15.2163H13.7786Z" stroke="#69A0C9"/>
</svg>
