<svg width="31" height="25" viewBox="0 0 31 25" fill="none" xmlns="http://www.w3.org/2000/svg">
<path fill-rule="evenodd" clip-rule="evenodd" d="M6.74365 0.797852L23.0002 7.87399L20.7524 13.0451L4.49577 5.96896L6.74365 0.797852Z" fill="#AECCE2"/>
<path fill-rule="evenodd" clip-rule="evenodd" d="M4.49579 5.96899L20.7524 13.0451L18.5045 18.2162L2.24791 11.1401L4.49579 5.96899Z" fill="#69A0C9"/>
<path fill-rule="evenodd" clip-rule="evenodd" d="M2.24789 11.1401L18.5045 18.2163L16.2566 23.3874L1.54341e-05 16.3112L2.24789 11.1401Z" fill="#316489"/>
<path fill-rule="evenodd" clip-rule="evenodd" d="M18.8873 10.132L27.3227 0.903923C28.5589 -0.399858 30.9047 1.75428 29.6335 3.09495L20.8677 12.0097C24.693 15.6366 23.6847 15.98 22.2703 17.4717L13.3583 9.02198C14.7729 7.53004 15.1227 6.56268 18.8873 10.132Z" fill="#69A0C9" stroke="#69A0C9"/>
<path fill-rule="evenodd" clip-rule="evenodd" d="M13.3522 9.01611L7.70923 14.9679L16.6368 23.4323L22.2798 17.4806L13.3522 9.01611Z" fill="#CFE1EE" stroke="#69A0C9" stroke-width="0.999999"/>
<path d="M14.291 10.2612L9.00226 15.8393" stroke="#5F8FB5" stroke-width="0.500001"/>
<path d="M15.407 11.3191L10.1182 16.8972" stroke="#5F8FB5" stroke-width="0.500001"/>
<path d="M16.5229 12.3772L11.2341 17.9553" stroke="#5F8FB5" stroke-width="0.500001"/>
<path d="M17.6389 13.4353L12.3501 19.0134" stroke="#5F8FB5" stroke-width="0.500001"/>
<path d="M18.7548 14.4934L13.466 20.0715" stroke="#5F8FB5" stroke-width="0.500001"/>
<path d="M19.8716 15.5505L14.5813 21.1303" stroke="#5F8FB5" stroke-width="0.500001"/>
<path d="M20.9882 16.6079L15.6979 22.1876" stroke="#5F8FB5" stroke-width="0.500001"/>
</svg>
