<svg width="24" height="24" viewBox="0 0 24 24" fill="none" xmlns="http://www.w3.org/2000/svg">
<g clip-path="url(#clip0_6117_1978)">
<path d="M22.6667 20.2962H23.6667H22.6667ZM20.2963 22.6666V21.6666V22.6666ZM3.70371 22.6666V23.6666V22.6666ZM1.33334 20.2962H0.333344H1.33334ZM12 1.33325L12.7071 0.626145L12 -0.0809616L11.2929 0.626145L12 1.33325ZM22.6667 15.5555H21.6667V20.2962H22.6667H23.6667V15.5555H22.6667ZM22.6667 20.2962H21.6667C21.6667 20.6597 21.5223 21.0082 21.2653 21.2652L21.9724 21.9723L22.6795 22.6794C23.3116 22.0474 23.6667 21.1901 23.6667 20.2962H22.6667ZM21.9724 21.9723L21.2653 21.2652C21.0083 21.5222 20.6597 21.6666 20.2963 21.6666V22.6666V23.6666C21.1902 23.6666 22.0475 23.3115 22.6795 22.6794L21.9724 21.9723ZM20.2963 22.6666V21.6666H3.70371V22.6666V23.6666H20.2963V22.6666ZM3.70371 22.6666V21.6666C3.34027 21.6666 2.99171 21.5222 2.73472 21.2652L2.02761 21.9723L1.3205 22.6794C1.95257 23.3115 2.80984 23.6666 3.70371 23.6666V22.6666ZM2.02761 21.9723L2.73472 21.2652C2.47772 21.0082 2.33334 20.6597 2.33334 20.2962H1.33334H0.333344C0.333344 21.1901 0.688435 22.0474 1.3205 22.6794L2.02761 21.9723ZM1.33334 20.2962H2.33334V15.5555H1.33334H0.333344L0.333344 20.2962H1.33334ZM17.9259 7.25918L18.633 6.55207L12.7071 0.626145L12 1.33325L11.2929 2.04036L17.2188 7.96628L17.9259 7.25918ZM12 1.33325L11.2929 0.626145L5.36698 6.55207L6.07408 7.25918L6.78119 7.96628L12.7071 2.04036L12 1.33325ZM12 1.33325H11V15.5555H12H13V1.33325H12Z" fill="#69A0C9"/>
</g>
<defs>
<clipPath id="clip0_6117_1978">
<rect width="24" height="24" fill="white" transform="translate(0 24) rotate(-90)"/>
</clipPath>
</defs>
</svg>
