<svg width="24" height="26" viewBox="0 0 24 26" fill="none" xmlns="http://www.w3.org/2000/svg">
<path d="M11.7217 0C18.1949 0.000135566 23.4424 5.24847 23.4424 11.7217C23.4424 12.278 23.4002 12.8247 23.3252 13.3604C23.0601 13.1824 22.7408 13.0781 22.3975 13.0781H21.8506C21.9095 12.6342 21.9424 12.1817 21.9424 11.7217C21.9424 6.0769 17.3664 1.50014 11.7217 1.5C6.07693 1.50014 1.5 6.0769 1.5 11.7217C1.50033 16.9011 5.35448 21.1775 10.3506 21.8477V23.3594C4.52375 22.6802 0.000335843 17.7306 0 11.7217C0 5.24847 5.2485 0.00013577 11.7217 0Z" fill="#69A0C9"/>
<path d="M7.18551 1.74037C7.51988 1.92707 8.14408 2.664 7.95601 3.05385C7.76772 3.44362 6.91728 3.6272 7.42867 4.18568C7.80892 4.60074 8.54786 4.29593 8.92769 4.02748C9.29534 3.76796 9.5301 3.17974 10.0576 3.27943C10.4795 3.35968 10.924 3.94505 11.165 4.2726C11.9852 5.38873 9.97751 5.35918 9.36617 5.75795C9.12933 5.9125 8.76609 6.14652 8.63375 6.40541C8.45947 6.74532 8.64633 6.89987 8.68648 7.24135C8.754 7.82315 8.39362 8.0581 7.97164 8.38197C7.36309 8.85131 7.49954 9.12942 7.61715 9.81166C7.69574 10.2674 7.59229 10.7168 7.07906 10.4357C6.80535 10.2848 6.66119 9.98663 6.35641 9.87318C6.12491 9.78512 5.85424 9.81271 5.61324 9.83803C5.03567 9.89868 4.49672 10.1195 4.65914 10.8009C4.78571 11.3309 5.3586 11.9817 5.915 12.0568C6.50155 12.1359 6.8466 11.5523 7.39254 11.4806C7.68456 11.4423 7.89963 11.5906 8.17379 11.6613C8.47285 11.7388 8.72561 11.6729 9.0273 11.6945C9.6819 11.7409 10.1255 12.3116 10.624 12.6808C10.8617 12.8568 11.1554 13.0137 11.4619 13.174C10.8143 13.4026 10.3496 14.0194 10.3496 14.7453V20.3419C10.2119 20.6635 10.1104 20.9989 10.0586 21.338C10.0158 21.6197 10.0818 22.2439 9.83492 22.4464C9.6476 22.6002 9.24706 22.3906 9.02242 22.3537C9.18328 22.3072 8.785 22.1863 8.66891 22.046C8.49959 21.8419 8.44171 21.5141 8.37789 21.2667C8.19714 20.551 8.06519 19.8238 7.98434 19.09C7.91261 18.4661 7.92289 17.8097 7.45309 17.3302C6.99325 16.8556 6.32676 16.7135 6.04391 16.0646C5.65466 15.1701 6.20931 14.088 5.68941 13.2335C5.1034 12.2704 3.77645 12.5749 3.28219 11.4757C2.81279 10.4378 2.08585 9.59864 1.72555 8.51381C1.66278 8.32392 1.43201 8.00188 1.44625 7.82728L2.76559 6.76283C2.79773 6.80808 2.82584 6.86001 2.85445 6.91518L3.28219 6.48842L3.95699 5.30678L4.46383 4.46303L5.59078 3.75893C5.59375 3.67376 5.6003 3.58864 5.61324 3.50404L7.18551 1.74037ZM17.4814 7.4142C17.9059 7.3409 18.3465 7.23168 18.7763 7.33705C19.2683 7.4578 19.5096 7.85484 19.9013 8.12807C20.9567 8.86538 20.8739 7.30365 21.7207 7.29799C21.8832 7.71258 22.2947 8.32961 22.2968 8.7726C22.2978 8.85129 22.2862 8.92585 22.2666 8.99721L22.5244 10.5392V13.0841C22.4825 13.081 22.4401 13.0783 22.3974 13.0783H18.9502C18.6948 12.3901 17.837 12.7982 17.0048 12.8537C15.981 12.9201 15.0317 12.4146 14.5781 11.4826C14.1067 10.5133 14.4144 9.76483 15.1425 9.07924C15.5192 8.7253 15.7066 8.25235 16.0605 7.90053C16.4265 7.53518 16.9989 7.49751 17.4814 7.4142ZM18.4228 4.16127C18.7935 3.77794 19.2742 3.73572 19.665 4.10463C20.071 4.48796 20.2944 5.04018 20.5654 5.51478C20.6582 5.67883 20.8678 5.87015 20.9121 6.04896C20.9597 6.24025 20.8173 6.45856 20.7119 6.60561C20.5489 6.83136 19.9236 7.38085 19.8281 6.79799C19.7854 6.53849 19.8244 6.34414 19.624 6.13686C19.4717 5.9874 19.267 5.90402 19.0537 5.90443C18.569 5.90391 18.41 6.43441 18.1406 6.74037C17.7957 7.13117 17.1174 7.26005 16.6601 6.98646C16.2983 6.76915 16.081 6.04689 16.4629 5.74623C16.6 5.63664 16.7867 5.62261 16.9502 5.58412C17.2471 5.51396 17.4119 5.38398 17.5586 5.11342C17.7664 4.72852 18.1191 4.47768 18.4228 4.16127ZM16.9443 3.33021C17.4473 3.09627 17.654 3.56714 17.7754 4.00111C17.9199 4.51908 17.4654 4.71985 17.0175 4.71986C16.719 4.71986 16.0901 4.65968 16.1328 4.23353C16.1702 3.85797 16.6241 3.47896 16.9443 3.33021ZM11.3847 0.755019C11.4241 0.753904 11.6793 0.71546 11.7099 0.74916C11.751 0.79388 11.7189 1.0578 11.7187 1.1183C11.7324 1.54766 11.9599 2.01376 11.8545 2.44154C11.7457 2.89024 11.2805 3.14617 10.8418 3.06654C10.3882 2.98422 10.1415 2.65057 9.79976 2.38686C9.49184 2.14713 9.15932 2.33724 8.8066 2.31361C8.43368 2.28935 8.19822 2.00022 7.9482 1.756C7.80211 1.71012 7.64081 1.67565 7.51266 1.58705C8.47597 1.18678 9.49216 0.925867 10.5293 0.813613C10.8137 0.782682 11.0989 0.763456 11.3847 0.755019Z" fill="#69A0C9"/>
<path d="M17.2074 17.8457V22.0252M15.1176 19.9354H19.2972M13.5502 15.2334H20.8645C21.4416 15.2334 21.9094 15.7012 21.9094 16.2783V23.5926C21.9094 24.1697 21.4416 24.6375 20.8645 24.6375H13.5502C12.9732 24.6375 12.5053 24.1697 12.5053 23.5926V16.2783C12.5053 15.7012 12.9732 15.2334 13.5502 15.2334Z" stroke="#69A0C9" stroke-width="1.2" stroke-linecap="round" stroke-linejoin="round"/>
</svg>
